<svg xmlns="http://www.w3.org/2000/svg" viewBox="0 0 512 512">
  <rect width="512" height="512" rx="96" fill="#15201d"/>
  <path fill="#eff7f3" d="M142 132h236c24 0 44 20 44 44v236H142c-24 0-44-20-44-44V176c0-24 20-44 44-44z"/>
  <path fill="#1f8a64" d="M142 132h236c24 0 44 20 44 44v54H98v-54c0-24 20-44 44-44z"/>
  <circle cx="164" cy="186" r="14" fill="#eff7f3"/>
  <circle cx="218" cy="186" r="14" fill="#eff7f3"/>
  <path fill="#15201d" d="M170 286h146a22 22 0 0 1 0 44H170a22 22 0 0 1 0-44zm0 72h92a22 22 0 0 1 0 44h-92a22 22 0 0 1 0-44z"/>
  <path fill="#d59f27" d="M334 330c0-43 35-78 78-78v156c-43 0-78-35-78-78z"/>
  <path fill="#f5f7f8" d="M384 302h40a14 14 0 0 1 0 28h-16v42a14 14 0 0 1-28 0v-42h-16a14 14 0 0 1 0-28h20z"/>
</svg>
